<svg width="34" height="20" viewBox="0 0 34 20" fill="none" xmlns="http://www.w3.org/2000/svg">
<path d="M5.66667 0H14.7333V2.10526H17V4.21053H19.2667V6.31579H20.4V13.6842H19.2667V15.7895H17V17.8947H14.7333V20H5.66667V17.8947H3.4V15.7895H1.13333V13.6842H0V6.31579H1.13333V4.21053H3.4V2.10526H5.66667V0Z" fill="white"/>
<path d="M19.2665 0H28.3332V2.10526H30.5999V4.21053H32.8665V6.31579H33.9999V13.6842H32.8665V15.7895H30.5999V17.8947H28.3332V20H19.2665V17.8947H16.9999V15.7895H14.7332V13.6842H13.5999V6.31579H14.7332V4.21053H16.9999V2.10526H19.2665V0Z" fill="white"/>
<rect x="4.81665" y="11.2" width="1.7" height="1.57895" fill="black"/>
<rect x="27.4834" y="11.2" width="1.7" height="1.57895" fill="black"/>
<rect x="6.51672" y="12.7776" width="1.7" height="1.57895" fill="black"/>
<rect x="25.7832" y="12.7776" width="1.7" height="1.57895" fill="black"/>
<rect x="8.21655" y="14.3569" width="17.5667" height="1.57895" fill="black"/>
<rect x="7.62817" y="5" width="1.54286" height="5.26316" fill="black"/>
<rect x="6.59998" y="6.05273" width="3.6" height="3.15789" fill="black"/>
<rect x="16.2286" y="5" width="1.54286" height="5.26316" fill="black"/>
<rect x="15.2" y="6.05273" width="3.6" height="3.15789" fill="black"/>
<rect x="24.829" y="5" width="1.54286" height="5.26316" fill="black"/>
<rect x="23.8" y="6.05273" width="3.6" height="3.15789" fill="black"/>
</svg>
